<?xml version="1.0" standalone="no"?><!DOCTYPE svg PUBLIC "-//W3C//DTD SVG 1.1//EN" "http://www.w3.org/Graphics/SVG/1.1/DTD/svg11.dtd"><svg t="1548837803400" class="icon" style="" viewBox="0 0 1024 1024" version="1.1" xmlns="http://www.w3.org/2000/svg" p-id="2453" xmlns:xlink="http://www.w3.org/1999/xlink" width="200" height="200"><defs><style type="text/css"></style></defs><path d="M508.928 998.4c-17.408 0-32.768-6.144-44.032-18.432-36.864-36.864-356.352-371.712-356.352-572.416 0-216.064 179.2-391.168 399.36-391.168s399.36 175.104 399.36 391.168c0 102.4-79.872 250.88-238.592 440.32L551.936 978.944c-11.264 12.288-26.624 19.456-43.008 19.456z m-1.024-930.816c-192.512 0-348.16 152.576-348.16 339.968 0 147.456 224.256 415.744 342.016 537.6 3.072 3.072 10.24 3.072 12.288 0l115.712-130.048c186.368-223.232 226.304-345.088 226.304-406.528 0-188.416-156.672-340.992-348.16-340.992z m0 531.456c-107.52 0-195.584-86.016-195.584-191.488C312.32 302.08 399.36 215.04 507.904 215.04c107.52 0 195.584 86.016 195.584 191.488 0 106.496-88.064 192.512-195.584 192.512z m0-332.8c-79.872 0-144.384 63.488-144.384 140.288 0 77.824 64.512 140.288 144.384 140.288s144.384-63.488 144.384-140.288c0-76.8-64.512-140.288-144.384-140.288z" p-id="2454"></path></svg>