<?xml version="1.0" standalone="no"?><!DOCTYPE svg PUBLIC "-//W3C//DTD SVG 1.1//EN" "http://www.w3.org/Graphics/SVG/1.1/DTD/svg11.dtd"><svg t="1548750087286" class="icon" style="" viewBox="0 0 1024 1024" version="1.1" xmlns="http://www.w3.org/2000/svg" p-id="3073" xmlns:xlink="http://www.w3.org/1999/xlink" width="200" height="200"><defs><style type="text/css"></style></defs><path d="M512.512 19.456c-271.872 0-492.544 221.696-492.544 494.08s221.184 494.08 492.544 494.08 492.544-221.696 492.544-494.08C1005.568 241.152 784.384 19.456 512.512 19.456 512.512 19.456 512.512 19.456 512.512 19.456zM512.512 967.68c-249.856 0-453.12-203.776-453.12-454.656 0-250.368 203.264-454.144 453.12-454.144 249.856 0 453.12 203.776 453.12 454.656C966.144 763.904 762.368 967.68 512.512 967.68L512.512 967.68 512.512 967.68zM512.512 232.448c-155.136 0-280.576 125.952-280.576 281.088s125.44 281.088 280.576 281.088 280.576-125.952 280.576-281.088C793.088 357.888 667.648 232.448 512.512 232.448L512.512 232.448 512.512 232.448z" p-id="3074" fill="#1296db" data-spm-anchor-id="a313x.7781069.0.i0" class=""></path></svg>