<?xml version="1.0" standalone="no"?><!DOCTYPE svg PUBLIC "-//W3C//DTD SVG 1.1//EN" "http://www.w3.org/Graphics/SVG/1.1/DTD/svg11.dtd"><svg t="1548484724401" class="icon" style="" viewBox="0 0 1024 1024" version="1.1" xmlns="http://www.w3.org/2000/svg" p-id="580" xmlns:xlink="http://www.w3.org/1999/xlink" width="200" height="200"><defs><style type="text/css"></style></defs><path d="M903.825 533.6H120.188c-16.641 0-30.148-13.494-30.148-30.133 0-16.626 13.508-30.149 30.148-30.149h783.637c16.671 0 30.134 13.523 30.134 30.149 0 16.639-13.463 30.133-30.134 30.133m-90.398 361.684H647.26c-16.67 0-30.164-13.462-30.164-30.132s13.493-30.164 30.164-30.164h166.167c16.64 0 30.102-13.492 30.102-30.132V654.162c0-16.672 13.493-30.134 30.163-30.134 16.673 0 30.134 13.462 30.134 30.134v150.694c-0.002 49.862-40.568 90.428-90.4 90.428m-431.126 0H210.602c-49.862 0-90.413-40.566-90.413-90.428V654.162c0-16.672 13.507-30.134 30.147-30.134 16.641 0 30.118 13.462 30.118 30.134v150.694c0 16.64 13.538 30.132 30.148 30.132h171.699c16.67 0 30.164 13.493 30.164 30.164-0.001 16.67-13.495 30.132-30.164 30.132m-231.965-512.38c-16.64 0-30.147-13.508-30.147-30.149V202.061c0-49.862 40.552-90.413 90.413-90.413h171.699c16.67 0 30.164 13.506 30.164 30.147 0 16.61-13.494 30.118-30.164 30.118H210.602c-16.61 0-30.148 13.538-30.148 30.148v150.694c0 16.641-13.478 30.149-30.118 30.149m723.356 0c-16.67 0-30.163-13.508-30.163-30.149V202.061c0-16.61-13.461-30.148-30.102-30.148H647.26c-16.67 0-30.164-13.507-30.164-30.118 0-16.64 13.493-30.147 30.164-30.147h166.167c49.83 0 90.399 40.552 90.399 90.413v150.694c-0.002 16.641-13.462 30.149-30.135 30.149" fill="" p-id="581"></path></svg>